<svg width="480" height="480" viewBox="0 0 480 480" fill="none" xmlns="http://www.w3.org/2000/svg">
  <rect width="480" height="480" rx="56" fill="#F6EFE3"/>
  <circle cx="240" cy="174" r="116" fill="#E4C2A4"/>
  <path d="M153 157C153 120.549 182.549 91 219 91H261C297.451 91 327 120.549 327 157V183H153V157Z" fill="#5F554F"/>
  <path d="M137 389C137 319.964 192.964 264 262 264H275C344.036 264 400 319.964 400 389V422H137V389Z" fill="#66706B"/>
  <path d="M82 389C82 319.964 137.964 264 207 264H220C289.036 264 345 319.964 345 389V422H82V389Z" fill="#7A857F"/>
  <ellipse cx="197.5" cy="181.5" rx="18.5" ry="22.5" fill="#2B3442"/>
  <ellipse cx="282.5" cy="181.5" rx="18.5" ry="22.5" fill="#2B3442"/>
  <path d="M204 260C215.708 268.555 226.918 272 240 272C253.082 272 264.292 268.555 276 260" stroke="#85524A" stroke-width="14" stroke-linecap="round"/>
  <path d="M215 208C218.5 218 212.5 231 198.5 234.5" stroke="#C89F80" stroke-width="10" stroke-linecap="round"/>
  <path d="M190 147C197.333 141.667 206 139 216 139" stroke="#5F554F" stroke-width="9" stroke-linecap="round"/>
  <path d="M264 139C274 139 282.667 141.667 290 147" stroke="#5F554F" stroke-width="9" stroke-linecap="round"/>
  <circle cx="356" cy="100" r="32" fill="#DDE8C0"/>
  <path d="M356 83V117" stroke="#9CAE6C" stroke-width="8" stroke-linecap="round"/>
  <path d="M373 100H339" stroke="#9CAE6C" stroke-width="8" stroke-linecap="round"/>
</svg>
