<svg width="256" height="256" viewBox="0 0 256 256" fill="none" xmlns="http://www.w3.org/2000/svg">
  <path d="M129 17L152 92L128 118L102 92L129 17Z" fill="#A8ADB4"/>
  <path d="M152 92L202 35L214 108L160 127L152 92Z" fill="#F2F4F7"/>
  <path d="M214 108L170 143L160 127L202 35L214 108Z" fill="#D6DBE0"/>
  <path d="M129 17L102 92L63 63L129 17Z" fill="#666B72"/>
  <path d="M63 63L102 92L84 138L36 108L63 63Z" fill="#2A2E33"/>
  <path d="M36 108L84 138L58 174L36 108Z" fill="#8B9097"/>
  <path d="M102 92L128 118L109 150L84 138L102 92Z" fill="#4D5258"/>
  <path d="M128 118L160 127L141 157L109 150L128 118Z" fill="#767B82"/>
  <path d="M84 138L109 150L89 205L58 174L84 138Z" fill="#1A1D22"/>
  <path d="M109 150L141 157L170 239L89 205L109 150Z" fill="#B9BEC5"/>
  <path d="M141 157L160 127L202 222L170 239L141 157Z" fill="#F7F8FA"/>
  <path d="M58 174L89 205L66 231L58 174Z" fill="#575C63"/>
  <path d="M202 35L214 108L223 93L202 35Z" fill="#C6CBD1"/>
  <path d="M152 92L160 127L141 157L128 118L152 92Z" fill="#E5E8EC" fill-opacity="0.7"/>
</svg>
